<?xml version="1.0"?>
<svg width="16" height="16" xmlns="http://www.w3.org/2000/svg" xmlns:svg="http://www.w3.org/2000/svg" version="1.1">
 <metadata id="metadata30">image/svg+xml</metadata>

 <g class="layer">
  <title>Layer 1</title>
  <path d="m6.39,2l-3.39,3.43l0,3.43l3.39,3.43l0,-4.28l0.85,-0.86l-0.85,-0.86l0,-4.28z" fill="#bebebe" id="path18" transform="matrix(1, 0, 0, 1, 0, 0)"/>
  <path d="m2.3,5c-1.08,0 -1.3,0.74 -1.3,1.54l0,0.77c0,0.8 0.24,1.54 1.3,1.54l1.7,0l0,-3.85l-1.7,0z" fill="#bebebe" id="path20" transform="matrix(1, 0, 0, 1, 0, 0)"/>
  <path d="m12.87,1.1l-0.87,1.22c0.67,0.94 1.39,2.62 1.4,4.83c0,2.2 -0.73,3.89 -1.4,4.83l0.87,1.22c0.9,-1.26 1.77,-3.45 1.76,-6.04c0.02,-2.59 -0.86,-4.79 -1.76,-6.04z" fill="#bebebe" fill-rule="evenodd" id="path4508" stroke-width="1px"/>
  <path d="m10.87,3.28l-0.87,1.12c0.48,0.63 0.86,1.63 0.86,2.78c0,1.14 -0.39,2.15 -0.87,2.77l0.86,1.13c0.79,-1.01 1.23,-2.42 1.23,-3.9c0,-1.48 -0.44,-2.89 -1.21,-3.91z" fill="#bebebe" fill-rule="evenodd" id="path4529" stroke-width="1px" transform="matrix(1, 0, 0, 1, 0, 0)"/>
  <path d="m8.84,5.12l-0.84,0.9c0.47,0.42 0.47,0.89 0.47,1.02c0,0.12 -0.01,0.6 -0.47,1.02l0.84,0.9c0.73,-0.67 0.81,-1.53 0.81,-1.92c0,-0.38 -0.09,-1.24 -0.81,-1.92z" fill="#bebebe" fill-rule="evenodd" id="path4569" stroke-width="1px"/>
 </g>
</svg>